# xmcd CD database file
#
# Track frame offsets:
#	150
#	26102
#	46998
#	65138
#	88671
#	106133
#	127623
#	147227
#	162825
#	186090
#
# Disc length: 2743 seconds
#
# Revision: 4
# Processed by: cddbd v1.5PL3 Copyright (c) Steve Scherf et al.
# Submitted via: CDex 1.51
#
DISCID=820ab50a
DTITLE=Memoria - The Timelessness
DYEAR=2003
DGENRE=Blues
TTITLE0=Dragonflies' Tales
TTITLE1=Frost Explosion
TTITLE2=Sorrowling's Cry
TTITLE3=Misery's End
TTITLE4=Vanity Fair
TTITLE5=Another Chance?
TTITLE6=Tender Caress
TTITLE7=Crievelessly Yours
TTITLE8=Eternal Flight
TTITLE9=Life Springing Wild
EXTD=YEAR: 2003
EXTT0=
EXTT1=
EXTT2=
EXTT3=
EXTT4=
EXTT5=
EXTT6=
EXTT7=
EXTT8=
EXTT9=
PLAYORDER=
